<?xml version="1.0" encoding="UTF-8"?>
<mxfile>
  <diagram id="banking_schema" name="Banking Database Schema">
    <mxGraphModel dx="1215" dy="682" grid="1" gridSize="10" guides="1" tooltips="1" connect="1" arrows="1" fold="1" page="1" pageScale="1" pageWidth="827" pageHeight="1169" math="0" shadow="0">
      <root>
        <mxCell id="0" />
        <mxCell id="1" parent="0" />
        
        <!-- Customers Table -->
        <mxCell id="customers_table" value="Customers" style="shape=swimlane;fillColor=#D5E8D4;" vertex="1" parent="1">
          <mxGeometry x="20" y="20" width="200" height="200" as="geometry" />
        </mxCell>
        <mxCell id="customer_id" value="customer_id (PK)" style="text;strokeColor=none;fillColor=#FFFFFF;" vertex="1" parent="customers_table">
          <mxGeometry x="10" y="30" width="180" height="20" as="geometry" />
        </mxCell>
        <mxCell id="customer_attributes" value="first_name, last_name, date_of_birth, phone_number (UNIQUE)" style="text;strokeColor=none;fillColor=#FFFFFF;" vertex="1" parent="customers_table">
          <mxGeometry x="10" y="50" width="180" height="120" as="geometry" />
        </mxCell>

        <!-- Accounts Table -->
        <mxCell id="accounts_table" value="Accounts" style="shape=swimlane;fillColor=#F8CECC;" vertex="1" parent="1">
          <mxGeometry x="250" y="50" width="180" height="140" as="geometry" />
        </mxCell>
        <mxCell id="account_number" value="account_number (PK)" style="text;strokeColor=none;fillColor=#FFFFFF;" vertex="1" parent="accounts_table">
          <mxGeometry x="10" y="30" width="160" height="20" as="geometry" />
        </mxCell>
        <mxCell id="account_customer_fk" value="customer_id (FK)" style="text;strokeColor=none;fillColor=#FFFFFF;" vertex="1" parent="accounts_table">
          <mxGeometry x="10" y="50" width="160" height="20" as="geometry" />
        </mxCell>
        <mxCell id="account_attributes" value="account_type, balance" style="text;strokeColor=none;fillColor=#FFFFFF;" vertex="1" parent="accounts_table">
          <mxGeometry x="10" y="70" width="160" height="60" as="geometry" />
        </mxCell>

        <!-- Transactions Table -->
        <mxCell id="transactions_table" value="Transactions" style="shape=swimlane;fillColor=#DAE8FC;" vertex="1" parent="1">
          <mxGeometry x="500" y="50" width="200" height="140" as="geometry" />
        </mxCell>
        <mxCell id="transaction_id" value="transaction_id (PK)" style="text;strokeColor=none;fillColor=#FFFFFF;" vertex="1" parent="transactions_table">
          <mxGeometry x="10" y="30" width="180" height="20" as="geometry" />
        </mxCell>
        <mxCell id="transaction_account_fk" value="account_number (FK)" style="text;strokeColor=none;fillColor=#FFFFFF;" vertex="1" parent="transactions_table">
          <mxGeometry x="10" y="50" width="180" height="20" as="geometry" />
        </mxCell>
        <mxCell id="transaction_attributes" value="transaction_date, transaction_type, amount" style="text;strokeColor=none;fillColor=#FFFFFF;" vertex="1" parent="transactions_table">
          <mxGeometry x="10" y="70" width="180" height="60" as="geometry" />
        </mxCell>

        <!-- Relationships -->
        <mxCell id="rel_customers_accounts" edge="1" parent="1" source="customers_table" target="accounts_table" style="edgeStyle=orthogonalEdgeStyle;rounded=1;strokeColor=#000000;">
          <mxGeometry relative="1" as="geometry" />
        </mxCell>
        <mxCell id="rel_accounts_transactions" edge="1" parent="1" source="accounts_table" target="transactions_table" style="edgeStyle=orthogonalEdgeStyle;rounded=1;strokeColor=#000000;">
          <mxGeometry relative="1" as="geometry" />
        </mxCell>

      </root>
    </mxGraphModel>
  </diagram>
</mxfile>
